<svg width="24" height="24" viewBox="0 0 24 24" fill="none" xmlns="http://www.w3.org/2000/svg">
<g clip-path="url(#clip0_515_348)">
<mask id="mask0_515_348" style="mask-type:luminance" maskUnits="userSpaceOnUse" x="4" y="4" width="16" height="16">
<path d="M20 4H4V20H20V4Z" fill="white"/>
</mask>
<g mask="url(#mask0_515_348)">
<mask id="mask1_515_348" style="mask-type:luminance" maskUnits="userSpaceOnUse" x="4" y="4" width="16" height="16">
<path d="M20 4H4V20H20V4Z" fill="white"/>
</mask>
<g mask="url(#mask1_515_348)">
<path d="M11.4668 4.26665L4.93349 10.8C4.53349 11.2 4.93349 12 5.46683 12H18.6668C19.3335 12 19.6002 11.2 19.2002 10.8L12.5335 4.26665C12.2668 3.99998 11.8668 3.99998 11.6002 4.26665H11.4668Z" fill="#A6D6F4"/>
<path d="M19.0669 10.7999L18.2669 9.99993C18.2669 9.99993 15.0669 11.5999 11.8669 9.99993C8.66689 8.39993 5.46689 9.99993 5.46689 9.99993L4.66689 10.7999C4.26689 11.1999 4.66689 11.9999 5.20022 11.9999H6.53356V19.3333C6.53356 19.7332 6.80022 19.9999 7.20022 19.9999H9.86689V15.4666C9.86689 15.0666 10.2669 14.6666 10.6669 14.6666H13.0669C13.4669 14.6666 13.8669 15.0666 13.8669 15.4666V19.9999H16.5336C16.9336 19.9999 17.2002 19.7332 17.2002 19.3333V11.9999H18.5336C19.2002 11.9999 19.4669 11.1999 19.0669 10.7999Z" fill="#007FFF"/>
</g>
</g>
</g>
<defs>
<clipPath id="clip0_515_348">
<rect width="16" height="16" fill="white" transform="translate(4 4)"/>
</clipPath>
</defs>
</svg>
